<?xml version="1.0" encoding="iso-8859-1"?>
<!-- Generator: Adobe Illustrator 22.1.0, SVG Export Plug-In . SVG Version: 6.00 Build 0)  -->
<svg version="1.1" id="Layer_1" xmlns="http://www.w3.org/2000/svg" xmlns:xlink="http://www.w3.org/1999/xlink" x="0px" y="0px"
	 width="850.394px" height="850.394px" viewBox="0 0 850.394 850.394" enable-background="new 0 0 850.394 850.394"
	 xml:space="preserve">
<path d="M833.202,426.008c-8.672,0.631-17.681,1.361-25.21,5.708c-7.529,4.348-13.217,16.492-15.482,24.302
	c0.882,0.081,1.851,0.121,2.86,0.138c-16.317,3.021-33.065,5.868-49.533,5.934c8.113-4.678,18.154-13.136,21.522-20.518
	c3.986-8.734,1.827-17.007-4.066-24.587c-7.491,4.887-15.236,10.032-19.847,17.695c-4.214,7.003-3.797,19.089-2.281,27.347
	c-10.114-0.298-20.096-1.741-29.778-4.95c-5.73-1.899-11.246-4.39-16.639-7.203c8.741-3.548,20.527-11.187,24.905-18.47
	c4.946-8.229,3.734-16.693-1.266-24.889c-7.994,4.01-16.27,8.248-21.717,15.343c-4.828,6.288-5.868,17.823-5.401,26.154
	c-11.443-6.302-22.398-13.845-33.712-20.102c6.215-2.504,14.647-7.952,17.77-13.148c3.512-5.843,2.651-11.853-0.899-17.672
	c-5.676,2.848-11.553,5.857-15.42,10.894c-3.44,4.481-4.171,12.714-3.831,18.634c-7.559-4.032-15.303-7.418-23.483-9.404
	c23.724-19.387,44.17-43.133,65.829-64.956c3.463-1.038,6.998-1.592,10.582-1.829c-0.687,6.043-0.343,13.679,1.849,18.105
	c2.882,5.819,8.145,8.217,14.637,8.361c0.633-6.016,1.239-12.276-0.814-17.967c-1.108-3.071-3.841-6.049-6.916-8.539
	c9.808,0.457,19.855,2.256,29.733,2.237c0.789,5.955,2.884,13.055,5.977,16.759c4.162,4.985,9.839,6.086,16.185,4.708
	c-0.791-5.998-1.664-12.226-4.99-17.279c-1.303-1.979-3.429-3.709-5.861-5.162c10.098-1.699,17.249-4.857,24.683-9.569
	c1.47-0.932,2.884-1.94,4.269-2.984c3.772,7.528,10.764,16.92,17.167,20.336c7.629,4.069,15.185,2.59,22.327-2.285
	c-3.975-7.005-8.168-14.254-14.799-18.826c-4.728-3.259-12.394-4.154-19.103-3.964c2.623-2.493,5.038-5.2,7.217-8.101
	c0.003,0.02,0.006,0.042,0.009,0.061c7.138-2.652,18.658-10.5,22.372-17.531c3.714-7.031,2.325-13.975-2.184-20.525
	c-6.428,3.682-13.078,7.565-17.258,13.681c-3.817,5.585-4.053,15.587-3.197,22.487c-12.667,9.249-26.07,18.244-41.32,20.983
	c5.066-4.252,10.898-11.18,12.364-16.633c1.77-6.583-0.71-12.125-5.723-16.744c-4.675,4.299-9.497,8.808-11.83,14.714
	c-2.103,5.325-0.472,13.585,1.519,19.19c-7.938,0.874-16.049,0.064-24.12-0.773c3.616-1.996,7.362-4.834,9.009-7.574
	c2.473-4.115,1.867-8.347-0.633-12.446c-3.998,2.005-8.136,4.125-10.859,7.672c-2.18,2.839-2.815,7.818-2.746,11.825
	c-6.65-0.628-13.239-1.014-19.644-0.189c15.083-14.565,30.999-27.86,49.193-37.863c4.683,0.594,11.93,0.082,15.68-2.123
	c4.138-2.433,5.628-6.441,5.39-11.236c-4.47-0.148-9.118-0.263-13.205,1.552c-3.778,1.678-7.11,6.847-8.842,10.678
	c-6.165,2.365-12.283,4.984-18.313,7.849c3.346-4.43,6.8-11.138,6.991-15.851c0.232-5.731-2.831-9.819-7.802-12.68
	c-3.039,4.395-6.16,8.99-6.98,14.269c-0.75,4.83,2.218,11.428,4.923,15.652c-7.483,3.666-14.821,7.691-21.942,12.034
	c2.817-4.854,5.503-12.227,5.053-17.06c-0.533-5.731-4.124-9.39-9.45-11.574c-2.438,4.776-4.931,9.762-5.043,15.124
	c-0.103,4.936,3.778,11.154,7.046,14.99c-9.895,6.176-19.355,12.946-28.164,20.195c-31.028,25.536-56.196,58.354-90.438,79.385
	c-0.15,0.092-0.307,0.172-0.457,0.263c1.238-8.491,0.789-17.421,0.837-26.29c5.633-0.251,14.095-2.341,18.069-5.715
	c4.372-3.712,5.303-8.735,4.04-14.329c-5.291,0.742-10.785,1.559-15.224,4.534c-2.936,1.968-5.234,5.995-6.765,9.909
	c0.187-4.612,0.632-9.178,1.659-13.627c1.425-6.171,3.917-11.917,7.058-17.36c4.885,2.672,12.124,5.129,16.856,4.604
	c5.701-0.632,9.282-4.275,11.363-9.62c-4.802-2.344-9.813-4.739-15.156-4.755c-2.704-0.008-5.774,1.192-8.617,2.825
	c4.328-6.179,9.334-11.998,14.37-17.643c4.767,2.997,13.177,6.127,18.46,5.541c5.701-0.632,9.282-4.275,11.363-9.62
	c-4.802-2.344-9.813-4.739-15.156-4.756c-5.343-0.016-12.117,4.678-15.732,8.128c0.011,0.008,0.025,0.016,0.036,0.024
	c-3.78,2.197-7.318,4.772-10.572,7.67c1.535-5.417,2.274-13.655,0.494-18.354c-1.435-3.788-4.066-6.173-7.491-7.492
	c28.259-14.736,64.015-15.367,93.119-30.081c14.204-7.181,24.372-14.691,33.133-23.517c3.472,4.185,8.746,8.779,13.027,10.08
	c5.488,1.667,10.215-0.267,14.236-4.358c-3.488-4.048-7.148-8.226-12.052-10.348c-2.802-1.213-6.638-1.194-10.287-0.632
	c2.028-2.286,4.006-4.654,5.964-7.134c1.782-2.257,3.472-4.578,5.087-6.947c4.155,3.706,10.648,7.733,15.374,8.291
	c5.696,0.673,10.008-2.066,13.243-6.802c-4.147-3.369-8.488-6.835-13.689-8.059c-3.428-0.807-7.92,0.243-11.819,1.779
	c3.599-5.842,6.704-11.973,9.294-18.324c4.922,2.528,12.015,4.76,16.644,4.168c5.689-0.728,9.209-4.43,11.2-9.808
	c-4.84-2.263-9.891-4.574-15.234-4.501c-3.278,0.045-7.063,1.874-10.322,4.091c1.287-3.689,2.409-7.441,3.352-11.247
	c4.489-3.412,10.149-9.752,11.524-14.686c1.539-5.525-0.505-10.206-4.687-14.131c-3.966,3.581-8.057,7.337-10.065,12.289
	c-2.008,4.951-0.179,12.987,1.673,17.629c0.069-0.044,0.143-0.099,0.214-0.145c-4.638,6.787-9.369,13.607-14.308,20.263
	c1.751-5.187,2.9-12.239,1.715-16.623c-1.496-5.537-5.644-8.519-11.244-9.759c-1.582,5.103-3.183,10.422-2.383,15.705
	c0.75,4.946,5.772,10.499,9.66,13.687c-5.327,7.024-10.918,13.813-16.904,20.131c2.387-5.021,4.461-14.459,3.003-19.855
	c-1.497-5.537-5.644-8.519-11.244-9.759c-1.582,5.103-3.183,10.422-2.383,15.705c0.793,5.235,6.37,11.146,10.326,14.217
	c-5.476,5.752-11.28,11.112-17.539,15.869c3.408-19.657-2.074-41.222,1.766-61.257c0.332-1.732,0.737-3.438,1.197-5.124
	c5.309,1.546,12.683,2.39,17.11,0.934c5.448-1.792,8.203-6.093,9.141-11.752c-5.181-1.306-10.578-2.619-15.81-1.535
	c-2.637,0.546-5.382,2.338-7.82,4.508c2.505-6.339,5.81-12.37,9.584-18.175c4.66,2.962,11.463,5.82,16.103,5.666
	c5.732-0.19,9.584-3.545,12.073-8.712c-4.606-2.708-9.417-5.484-14.743-5.913c-2.663-0.215-5.774,0.717-8.704,2.098
	c4.318-5.947,9.005-11.68,13.669-17.297c5.627-0.221,13.706-2.082,17.624-5.241c4.465-3.6,5.524-8.597,4.403-14.222
	c-5.308,0.607-10.822,1.284-15.335,4.145c-4.513,2.861-7.697,10.462-8.889,15.315c0.355,0.018,0.731,0.026,1.12,0.026
	c-4.173,2.492-8.108,5.341-11.755,8.522c1.056-4.459,1.523-9.395,0.614-12.759c-1.497-5.537-5.644-8.519-11.244-9.759
	c-1.582,5.103-3.183,10.422-2.383,15.705c0.626,4.133,4.235,8.684,7.674,11.93c-2.517,2.641-4.877,5.436-7.017,8.411
	c-1.917,2.664-3.653,5.309-5.229,8.038c0.573-5.393,0.192-12.316-1.842-16.27c-2.623-5.101-7.303-7.148-13.038-7.187
	c-0.478,5.322-0.93,10.858,0.96,15.856c1.725,4.564,7.542,8.836,11.976,11.18c-2.738,5.386-4.887,11.266-6.511,18.38
	c-1.016-5.399-3.509-12.191-6.728-15.449c-4.031-4.08-9.109-4.631-14.593-2.95c1.139,5.22,2.367,10.637,5.667,14.839
	c3.04,3.87,9.961,6.21,14.902,7.101c-0.011,0.055-0.022,0.106-0.033,0.161c-1.919,10.01-1.517,20.401-1.06,30.744
	c-5-2.567-12.765-4.897-17.661-4.123c-2.223,0.351-4.094,1.156-5.663,2.326c2.507-8.004,3.862-16.35,4.016-24.776
	c0.003-0.171-0.232-0.219-0.295-0.061c-0.396,0.997-0.795,1.998-1.195,2.998c0.25-4.21-0.077-8.584-1.345-11.497
	c-2.288-5.259-6.826-7.604-12.547-8.013c-0.821,5.28-1.628,10.775-0.065,15.885c1.369,4.476,6.516,8.932,10.705,11.605
	c-2.699,6.468-5.584,12.88-8.842,19.032c0.517-4.817,0.326-10.245-1.162-13.664c-2.288-5.259-6.826-7.604-12.547-8.013
	c-0.821,5.28-1.628,10.775-0.065,15.885c1.355,4.431,6.412,8.84,10.578,11.522c-3.395,5.755-7.211,11.189-11.61,16.122
	c1.68-4.211,2.849-8.944,2.46-12.363c-0.648-5.699-4.3-9.27-9.65-11.337c-2.331,4.808-4.713,9.826-4.715,15.169
	c-0.002,4.573,3.449,10.178,6.613,13.961c-1.043,0.966-2.113,1.909-3.219,2.819c-3.008,2.478-6.216,4.699-9.543,6.764
	c1.688-4.221,2.866-8.973,2.476-12.403c-0.648-5.699-4.3-9.27-9.65-11.337c-2.331,4.808-4.713,9.826-4.715,15.169
	c-0.001,3.967,2.597,8.714,5.351,12.373c-9.053,4.942-18.656,9.131-27.592,14.054c16.784-45.105,41.063-89.887,70.68-130.091
	c2.172,4.575,5.462,9.479,8.753,11.683c4.766,3.191,9.851,2.715,14.888-0.029c-2.16-4.887-4.447-9.949-8.521-13.406
	c-2.614-2.218-6.928-3.329-11.002-3.763c6.122-8.089,12.46-15.979,18.997-23.636c0.191,5.187,1.35,11.289,3.628,14.711
	c3.178,4.774,8.058,6.284,13.762,5.68c-0.122-5.342-0.294-10.894-2.732-15.648c-1.91-3.725-6.79-6.898-11.087-8.882
	c2.97-3.403,5.975-6.761,9.022-10.064c3.524,3.872,8.447,7.854,12.455,8.993c5.517,1.568,10.209-0.452,14.155-4.614
	c-3.56-3.984-7.296-8.095-12.237-10.128c-2.303-0.948-5.28-1.059-8.273-0.73c3.617-3.777,7.286-7.478,11-11.103
	c5.438,1.447,13.635,2.059,18.289,0.222c5.335-2.106,7.835-6.561,8.44-12.264c-5.248-1.002-10.713-1.998-15.873-0.612
	c-4.221,1.134-8.537,5.561-11.383,9.476c-2.667,1.989-5.32,4.023-7.956,6.109c1.705-5.162,2.8-12.061,1.633-16.376
	c-1.497-5.537-5.644-8.519-11.244-9.759c-1.582,5.103-3.183,10.422-2.383,15.705c0.696,4.595,5.079,9.712,8.816,12.971
	c-5.657,4.58-11.237,9.377-16.732,14.359c0.608-5.424,0.245-12.488-1.817-16.498c-2.623-5.101-7.303-7.148-13.038-7.187
	c-0.478,5.322-0.93,10.858,0.96,15.856c1.588,4.199,6.639,8.15,10.89,10.582c-7.421,6.861-14.674,14.059-21.733,21.533
	c1.181-5.482,1.161-14.762-1.326-19.598c-2.623-5.101-7.303-7.148-13.038-7.187c-0.478,5.322-0.93,10.858,0.96,15.856
	c1.832,4.846,8.276,9.363,12.779,11.592c-4.574,4.861-9.07,9.829-13.469,14.901c-0.423-15.315-5.931-30.929-7.032-46.549
	c4.369,1.811,11.281,3.234,15.412,2.171c4.66-1.2,7.204-4.649,8.301-9.335c-4.266-1.379-8.712-2.776-13.153-2.157
	c-3.732,0.52-7.904,3.922-10.683,6.951c-0.067-1.67-0.098-3.34-0.041-5.01c0.14-4.159,0.702-8.24,1.587-12.251
	c3.897,2.538,9.668,5.026,13.603,4.921c4.811-0.128,8.061-2.923,10.176-7.245c-3.85-2.297-7.872-4.652-12.339-5.04
	c-3.226-0.281-7.245,1.442-10.46,3.412c1.65-5.986,3.983-11.818,6.703-17.521c5.082,3.409,12.893,6.848,18.175,6.706
	c6.277-0.168,10.518-3.814,13.279-9.454c-5.024-2.997-10.273-6.07-16.101-6.577c-3.866-0.337-8.605,1.534-12.604,3.832
	c3.033-5.801,6.373-11.474,9.697-17.047c0.075-0.126-0.081-0.26-0.195-0.168h0c-1.667,1.331-3.256,2.747-4.801,4.208
	c1.076-6.888,0.803-16.91-2.004-22.368c-3.255-6.329-9.062-8.869-16.179-8.918c-0.594,6.603-1.153,13.473,1.191,19.675
	c2.127,5.627,9.266,10.895,14.753,13.816c-5.192,5.335-9.592,11.408-13.001,18.06c0.472-4.54,0.145-10.339-1.562-13.658
	c-2.213-4.303-6.161-6.031-11.001-6.064c-0.403,4.49-0.784,9.161,0.81,13.378c1.469,3.886,6.454,7.522,10.207,9.488
	c-4.228,9.012-6.692,17.9-7.114,30.389c-0.692,20.506,8.848,41.083,7.004,61.063c-22.453,27.067-42.272,56.496-58.248,85.746
	c-1.76-5.519-3.271-11.082-4.211-16.723c4.7-1.454,10.977-4.742,13.568-8.219c3-4.027,2.807-8.495,0.629-13.019
	c-4.368,1.674-8.895,3.452-12.096,6.862c-1.392,1.483-2.375,3.671-3.038,6.031c-0.316-5.79,0.041-11.545,0.899-17.256
	c4.851,0.916,12.279,0.878,16.289-1.119c4.495-2.238,6.341-6.311,6.442-11.331c-4.653-0.48-9.495-0.938-13.892,0.658
	c-3.019,1.096-5.923,4.221-8.072,7.343c1.062-5.469,2.54-10.894,4.283-16.269c5.436,1.268,14.936,1.34,19.864-1.161
	c5.114-2.596,7.186-7.265,7.256-13c-5.319-0.506-10.853-0.987-15.861,0.876c-3.954,1.471-7.706,6.004-10.181,10.063
	c2.126-6.178,4.557-12.284,7.058-18.309c5.087-2.204,12.918-8.03,15.361-13.098c2.49-5.167,1.304-10.135-2.12-14.736
	c-4.535,2.825-9.225,5.801-12.076,10.32c-2.387,3.785-2.503,10.169-1.889,15.021c-6.171,7.134-11.169,15.207-14.768,23.918
	c-0.442-4.239-1.614-8.837-3.977-11.549c-3.16-3.625-7.601-5.783-12.042-7.706c10.058-7.805,20.134-15.687,27.982-25.457
	c6.325-7.875,10.704-15.049,13.952-22.341c5.011,2.718,12.857,5.263,17.849,4.583c5.763-0.784,9.302-4.567,11.277-10.037
	c-4.926-2.256-10.067-4.558-15.484-4.44c-3.756,0.081-8.151,2.477-11.687,5.134c1.586-4.187,2.867-8.469,3.987-12.996
	c0.447-1.806,0.837-3.623,1.178-5.447c4.604,1.151,11.491,1.568,15.383-0.029c4.477-1.836,6.536-5.622,6.984-10.441
	c-4.439-0.787-9.06-1.566-13.398-0.339c-2.975,0.841-5.98,3.636-8.263,6.483c0.781-5.55,1.083-11.155,0.908-16.752
	c3.8,0.503,9.839,0.073,12.93-1.764c3.355-1.994,4.55-5.258,4.337-9.155c-3.634-0.103-7.413-0.178-10.729,1.314
	c-2.714,1.221-5.133,4.667-6.619,7.607c-0.216-4.19-0.703-8.371-1.451-12.517c2.554-2.841,5.668-8.273,5.85-11.946
	c0.193-3.898-1.866-6.698-5.231-8.676c-2.095,2.972-4.247,6.079-4.837,9.666c-0.571,3.469,1.673,8.309,3.563,11.159
	c-1.113,6.36-2.273,12.778-3.633,19.148c-0.503-3.588-1.81-7.884-3.703-10.106c-2.531-2.971-5.95-3.599-9.755-2.733
	c0.511,3.6,1.073,7.337,3.103,10.354c1.855,2.758,6.381,4.684,9.684,5.546c-1.209,5.379-2.577,10.711-4.202,15.926
	c-0.518-3.556-1.813-7.76-3.679-9.95c-2.531-2.971-5.95-3.599-9.755-2.733c0.511,3.6,1.073,7.337,3.103,10.354
	c1.787,2.657,6.056,4.544,9.32,5.45c-3.872,11.562-9.106,22.48-16.753,31.999c-3.614,4.499-7.701,8.595-12.041,12.469
	c-1.713-5.839-4.348-13.122-7.139-20.857c4.455-2.113,10.667-6.79,12.72-10.929c2.23-4.497,1.242-8.857-1.71-12.917
	c-3.997,2.427-8.131,4.985-10.67,8.912c-1.677,2.594-2.132,6.617-2.011,10.289c-2.776-7.75-5.545-15.735-7.579-23.011
	c5.558-0.698,13.766-3.439,17.432-7.094c4.035-4.024,4.558-9.071,2.862-14.511c-5.181,1.155-10.557,2.401-14.716,5.699
	c-3.249,2.577-5.39,7.923-6.492,12.487c-0.98-3.87-1.702-7.48-2.037-10.663c-0.512-4.859-0.518-9.695-0.135-14.503
	c5.507,0.987,13.744,0.907,18.22-1.322c5.101-2.539,7.196-7.162,7.31-12.858c-5.28-0.544-10.774-1.065-15.764,0.747
	c-3.461,1.257-6.787,4.863-9.233,8.441c0.793-5.886,2.128-11.726,3.818-17.509c6.357,0.651,16.459-0.384,21.532-3.625
	c5.485-3.503,7.302-9.008,6.74-15.492c-6.063,0.023-12.366,0.099-17.812,2.763c-2.903,1.42-5.542,4.408-7.675,7.693
	c2.698-7.742,5.864-15.373,9.025-22.868c0.066-0.157-0.135-0.287-0.253-0.163c-6.885,7.266-12.485,15.638-16.542,24.749
	c-0.975-5.107-2.984-10.915-6.322-13.94c-4.493-4.072-10.526-5.895-16.344-7.601c-2.341,6.073-2.124,11.865,2.172,16.754
	c3.761,4.28,12.403,7.918,18.649,9.262c-0.344,0.905-0.678,1.814-0.992,2.731c-2.876,8.412-4.664,16.34-4.991,25.568
	c-1.059-2.431-2.422-4.625-4.12-6.035c-4.084-3.391-9.43-4.758-14.584-6.03c-1.818,5.4-1.409,10.458,2.534,14.572
	c3.39,3.537,10.869,6.349,16.359,7.338c0.096,1.401,0.21,2.824,0.366,4.3c0.461,4.377,1.583,9.379,3.088,14.712
	c-1.499-1.402-3.121-2.531-4.76-3.072c-1.314-0.433-2.663-0.67-4.029-0.795c0.04-0.074,0.088-0.149,0.124-0.222
	c1.737-3.502,0.967-6.898-1.331-10.06c-3.113,1.89-6.333,3.882-8.31,6.941c-1.61,2.49-1.778,6.673-1.436,9.947
	c-1.187,2.097-2.31,4.227-3.373,6.384c0.307-6-0.563-13.741-3.098-18.01c-3.222-5.427-8.499-7.363-14.801-7.023
	c-0.17,5.877-0.295,11.989,2.114,17.352c2.211,4.922,8.941,9.244,13.976,11.514c-5.195,11.508-8.649,23.759-10.155,36.349
	c-2.21,18.48-1.467,34.793,5.624,56.53c2.504,7.677,5.911,15.033,9.761,22.218c-0.416-0.225-0.827-0.459-1.261-0.655
	c-5.355-2.427-14.272-0.772-19.458,1.059c3.054,5.215,10.772,13.143,16.779,15.081c4.397,1.418,8.38,0.698,11.965-1.521
	c2.831,4.692,5.725,9.353,8.552,14.026c-1.703-1.447-3.541-2.703-5.586-3.63c-5.355-2.427-14.272-0.772-19.458,1.059
	c3.054,5.215,10.772,13.143,16.779,15.081c5.211,1.681,9.843,0.365,13.917-2.902c3.757,6.635,7.183,13.358,9.915,20.289
	c-3.015-3.438-6.305-6.641-10.433-8.512c-5.355-2.427-14.272-0.772-19.458,1.059c3.054,5.215,10.772,13.143,16.779,15.081
	c5.526,1.782,10.399,0.193,14.648-3.517c0.328,0.944,0.643,1.892,0.942,2.845c-10.057,22.84-19.629,45.914-32.48,67.272
	c-0.443,0.736-0.911,1.463-1.364,2.196c-2.798-5.342-5.926-10.591-9.12-15.833c4.855-1.329,10.463-3.774,13.121-7.31
	c3.443-4.582,4.637-10.419,5.739-16.043c-5.919-1.678-11.352-0.971-15.582,3.496c-2.986,3.154-5.299,9.256-6.464,14.646
	c-7.058-11.528-14.033-23.159-18.197-35.792c5.292,0.227,12.354-0.494,16.257-3.494c4.544-3.493,7.257-8.797,9.824-13.922
	c-5.254-3.201-10.678-3.974-15.949-0.802c-4.293,2.584-8.781,9.191-11.239,14.595c-3.309-11.671-4.216-23.728-3.747-35.897
	c5.188,0.125,11.763-0.668,15.477-3.522c4.544-3.493,7.257-8.797,9.824-13.922c-5.254-3.201-10.678-3.974-15.949-0.802
	c-3.134,1.886-6.366,5.918-8.843,10.059c0.756-8.936,2.121-17.898,3.694-26.776c4.409-2.435,9.293-6.136,11.045-10.204
	c2.267-5.264,2.052-11.218,1.798-16.944c-6.148-0.236-11.262,1.73-14.32,7.068c-2.628,4.587-3.26,13.185-2.613,19.172
	c-4.657,10.122-7.745,20.923-9.074,32.031c-0.548,4.586-0.877,9.018-0.933,13.451c-1.061-4.248-2.872-8.64-5.601-11.081
	c-4.272-3.821-9.986-5.508-15.496-7.084c-2.176,5.755-1.934,11.228,2.157,15.823c3.871,4.347,13.121,7.947,19.064,8.891
	c0.468,8.862,2.169,18.03,5.656,28.721c7.173,21.992,22.922,40.93,32.84,61.559c-9.247,13.213-35.131,32.756-62.798,44.534
	c3.213-7.925,6.394-15.885,8.832-23.989c5.731,1.904,14.516,3.091,19.634,1.411c5.845-1.919,8.803-6.531,9.811-12.6
	c-5.557-1.404-11.345-2.815-16.958-1.656c-3.804,0.785-7.818,3.988-10.958,7.345c0.783-3.099,1.435-6.223,1.917-9.378
	c1.129-7.388,1.587-13.983,1.482-20.166c6.003-0.08,14.282-1.678,18.478-4.762c4.958-3.643,6.332-8.947,5.402-15.028
	c-5.718,0.396-11.658,0.857-16.631,3.705c-3.079,1.764-5.698,5.5-7.606,9.31c-0.652-7.485-2.14-14.541-4.283-21.919
	c-0.383-1.317-0.8-2.622-1.232-3.921c5.542-2.255,12.546-6.654,15.321-10.979c3.323-5.178,2.705-10.622-0.343-15.966
	c-5.196,2.419-10.577,4.978-14.199,9.419c-1.995,2.447-3.089,6.221-3.599,10.01c-3.077-7.337-6.968-14.309-11.585-20.796
	c3.794-4.583,7.802-11.574,8.238-16.599c0.531-6.129-2.55-10.66-7.735-13.971c-3.473,4.559-7.044,9.329-8.182,14.946
	c-1.022,5.042,1.708,12.086,4.353,16.751c1.882,5.26,3.704,10.567,5.372,15.909c-1.098-1.511-2.323-2.807-3.674-3.694
	c-4.791-3.146-10.692-3.967-16.375-4.71c-1.299,6.013-0.249,11.391,4.478,15.329c4.243,3.535,13.171,5.683,19.215,5.94
	c2.663,10.612,4.408,21.332,4.482,32.088c-0.677-2.068-1.591-3.939-2.805-5.34c-3.752-4.332-9.207-6.73-14.472-8.993
	c-2.888,5.432-3.343,10.892,0.132,15.969c3.043,4.445,10.74,8.843,16.448,10.814c-0.105,0.851-0.22,1.702-0.35,2.552
	c-0.9,5.89-2.398,11.672-4.23,17.388c-0.843-2.025-1.909-3.834-3.241-5.143c-4.087-4.018-9.716-5.972-15.146-7.806
	c-0.269,0.621-0.503,1.24-0.711,1.857c-1.116-19.393-1.779-33.882-1.793-34.147c-0.37-6.694-1.113-13.369-2.147-19.947
	c-2.395-15.243-5.614-30.369-9.53-45.312c16.232-20.507,41.66-34.558,57.509-56.07c11.688-15.865,16.715-29.011,19.912-44.73
	c2.71-13.326,2.819-27.039,0.418-40.394c4.644-4.115,10.427-11.745,11.492-17.374c1.174-6.201-1.503-11.144-6.455-15.058
	c-4.015,4.295-8.152,8.795-9.893,14.411c-1.565,5.048,0.502,12.531,2.725,17.566c-0.849,6.281-1.763,12.599-2.863,18.875
	c-0.711-3.774-1.996-7.479-4.108-9.841c-3.919-4.383-9.553-6.754-14.991-8.99c-2.874,5.619-3.253,11.227,0.394,16.378
	c3.204,4.525,11.213,8.925,17.106,10.844c-3.335,16.061-8.289,31.588-16.976,45.191c0.71-2.498,0.765-5.256,0.284-8.19
	c-5.861,0.468-11.95,1.005-17.021,3.981c-2.604,1.528-4.866,4.447-6.657,7.64c0.589-3.498,0.971-7.035,1.204-10.724
	c0.177-2.803,0.209-5.608,0.114-8.404c6.206,0.058,15.502-1.682,20.044-5.094c5.046-3.791,6.399-9.247,5.379-15.475
	c-5.861,0.468-11.95,1.005-17.021,3.981c-3.726,2.187-6.755,7.213-8.695,11.826c-0.563-6.327-1.813-12.582-3.725-18.655
	c4.468-4.251,9.617-11.29,10.616-16.569c1.174-6.201-1.503-11.144-6.455-15.058c-4.015,4.295-8.152,8.795-9.893,14.411
	c-1.741,5.616,1.013,14.257,3.476,19.174c0.067-0.052,0.139-0.114,0.207-0.168c-0.007,9.219-0.229,18.526-1.27,27.634
	c-0.711-3.77-1.996-7.47-4.106-9.83c-3.919-4.383-9.553-6.754-14.991-8.99c-2.874,5.619-3.253,11.227,0.394,16.378
	c3.27,4.618,11.537,9.098,17.459,10.952c-1.67,9.236-4.416,18.161-8.919,26.453c-0.679,1.25-1.405,2.472-2.152,3.682
	c0.812-4.811,0.939-10.399-0.921-14.128c-2.624-5.262-7.433-9.035-12.088-12.627c-4.255,4.662-6.1,9.971-3.941,15.902
	c1.95,5.357,8.83,11.916,14.068,15.244c-4.398,6.286-9.545,12.129-14.731,17.918c-1.928-6.379-3.973-12.719-6.16-19.007
	c-4.302-12.368-7.426-25.167-9.707-38.044c11.301-25.941,36.727-45.223,49.689-71.098c5.489,2.895,14.6,5.61,20.218,4.643
	c6.22-1.071,9.913-5.308,11.847-11.316c-5.429-2.258-11.092-4.558-16.962-4.224c-4.251,0.242-9.158,3.249-12.966,6.418
	c3.653-8.001,6.044-15.271,7.556-22.418c6.204,0.016,15.347-1.728,19.838-5.104c5.045-3.793,6.396-9.249,5.373-15.477
	c-5.861,0.47-11.95,1.009-17.019,3.987c-2.645,1.554-4.936,4.543-6.739,7.796c0.48-3.991,0.744-8.024,0.85-12.209
	c0.057-2.259,0.033-4.516-0.055-6.768c5.764-1.661,12.768-4.985,15.974-8.755c4.089-4.808,4.209-10.428,1.843-16.279
	c-5.615,1.746-11.436,3.609-15.728,7.627c-1.328,1.244-2.424,2.953-3.316,4.882c-1.103-6.984-2.89-13.856-5.341-20.511
	c3.184-5.316,6.426-14.62,5.662-20.409c-0.825-6.257-4.914-10.115-10.841-12.283c-2.47,5.336-4.992,10.904-4.889,16.783
	c0.091,5.18,4.229,11.495,7.865,15.592c0.285,6.884,0.503,13.825,0.484,20.75c-0.719-1.263-1.539-2.389-2.481-3.271
	c-4.292-4.019-10.114-5.882-15.728-7.627c-1.411,3.491-1.928,6.897-1.256,10.1c-3.908-1.795-7.969-3.391-12.237-3.349
	c-2.483,0.025-5.284,1.148-7.88,2.672c0.845-1.165,1.637-2.362,2.353-3.606c0.96-1.667,1.769-3.251,2.458-4.789
	c5.17,0.528,12.417-0.015,16.325-2.236c4.633-2.634,6.352-7.058,6.166-12.385c-4.959-0.237-10.117-0.441-14.684,1.508
	c-1.744,0.744-3.413,2.154-4.912,3.848c0.297-1.606,0.508-3.235,0.658-4.93c0.198-2.234,0.213-4.473,0.065-6.7
	c5.287-3.19,11.883-9.012,13.996-13.987c2.467-5.809,0.905-11.209-3.1-16.087c-4.838,3.342-9.838,6.858-12.735,11.974
	c-2.542,4.489-2.198,11.99-1.158,17.361c-0.59,8.244-2.055,16.353-6.14,23.441c-4.605,7.99-12.24,14.124-17.886,21.313
	c0.117-7.757,0.094-14.661-0.243-20.52c5.131-3.274,11.18-8.767,13.185-13.489c2.467-5.809,0.905-11.209-3.1-16.087
	c-4.838,3.342-9.838,6.858-12.735,11.974c-2.352,4.154-2.234,10.888-1.379,16.126c-1.008,6.502-1.919,13.022-2.73,19.559
	c-1.243-3.105-2.793-5.925-4.561-7.752c-3.701-3.825-8.253-4.889-13.218-4.059c2.046-4.33,3.827-8.745,5.066-13.324
	c1.654-6.107,2.505-11.459,2.755-16.543c4.987-0.69,12.5-3.355,15.773-6.771c3.547-3.701,3.916-8.252,2.28-13.111
	c-4.637,1.144-9.447,2.374-13.121,5.425c-2.269,1.884-3.88,5.313-4.901,8.705c-0.137-3.604-0.552-7.163-1.186-10.861
	c-1.77-10.314-5.777-20.121-11.677-28.764c-0.08-0.117-0.262-0.037-0.229,0.101c4.683,19.167,9.252,39.295,4.101,58.319
	c-0.046,0.168-0.097,0.334-0.144,0.502c-0.738-4.767-2.898-11.102-5.786-14.086c-3.446-3.562-7.829-4.083-12.582-2.68
	c0.937,4.521,1.95,9.213,4.764,12.873c2.606,3.389,8.617,5.479,12.883,6.284c-5.792,17.946-19.205,33.583-23.002,51.633
	c-2.352-3.573-4.519-7.248-6.409-11.068c-0.948-1.915-1.812-3.856-2.617-5.816c4.813-1.03,10.874-3.434,13.723-6.407
	c3.547-3.701,3.916-8.252,2.28-13.111c-4.637,1.144-9.447,2.374-13.121,5.425c-2.27,1.885-3.882,5.318-4.903,8.712
	c-1.644-4.8-2.922-9.71-3.896-14.702c5.525-0.908,13.342-3.782,16.83-7.42c3.943-4.114,4.352-9.172,2.534-14.572
	c-5.154,1.272-10.5,2.639-14.584,6.03c-2.729,2.267-4.601,6.543-5.712,10.604c-1.216-7.94-1.762-16.049-1.919-24.206
	c5.538-0.851,13.576-3.759,17.128-7.465c3.943-4.114,4.352-9.172,2.534-14.572c-5.154,1.272-10.5,2.639-14.584,6.03
	c-2.291,1.903-3.98,5.223-5.121,8.643c0.046-7.603,0.349-15.215,0.684-22.736c0.009-0.209-0.277-0.272-0.36-0.08
	c-6.065,14.194-9.059,29.532-8.671,44.962c0.046,1.821,0.125,3.61,0.235,5.382c-4.066,1.101-8.059,2.512-11.271,5.179
	c-2.141,1.778-3.752,4.795-4.885,7.972c-0.337-9.183-2.121-17.083-4.986-25.462c-0.519-1.517-1.08-3.018-1.681-4.5
	c6.281-1.042,16.035-4.912,20.098-9.536c4.296-4.889,4.514-10.681,2.172-16.754c-5.818,1.706-11.852,3.53-16.344,7.601
	c-3.96,3.589-6.051,11.094-6.762,16.698c-4.08-9.39-9.797-18.008-16.862-25.464c-0.117-0.124-0.319,0.006-0.253,0.163
	c3.186,7.553,6.377,15.245,9.089,23.05c-2.313-4.104-5.472-8.182-9.022-9.919c-5.447-2.664-11.749-2.74-17.812-2.763
	c-0.563,6.484,1.255,11.988,6.74,15.491c5.251,3.354,15.884,4.345,22.181,3.549c1.985,6.459,3.556,12.991,4.447,19.58
	c-2.481-4.138-6.4-8.944-10.511-10.436c-4.99-1.812-10.483-1.291-15.763-0.747c0.114,5.697,2.209,10.319,7.31,12.858
	c4.778,2.379,13.842,2.31,19.296,1.108c0.583,5.55,0.665,11.139,0.074,16.759c-0.259,2.457-0.753,5.174-1.412,8.062
	c-1.139-4.433-3.24-9.457-6.357-11.929c-4.159-3.298-9.535-4.544-14.716-5.699c-1.696,5.44-1.172,10.488,2.862,14.511
	c3.622,3.612,11.68,6.332,17.234,7.069c-1.892,7.159-4.598,15.125-7.379,22.943c0.11-3.647-0.351-7.624-2.014-10.196
	c-2.539-3.927-6.673-6.485-10.67-8.912c-2.951,4.06-3.94,8.42-1.71,12.917c2.05,4.133,8.246,8.801,12.7,10.919
	c-2.465,6.845-4.866,13.416-6.681,19.034c-4.427-3.935-8.597-8.099-12.276-12.679c-7.249-9.024-12.331-19.303-16.139-30.197
	c3.126-0.977,6.861-2.768,8.503-5.209c2.029-3.017,2.591-6.754,3.103-10.354c-3.805-0.866-7.224-0.238-9.755,2.733
	c-1.57,1.843-2.737,5.112-3.376,8.221c-1.478-4.711-2.747-9.517-3.875-14.37c3.226-0.932,7.315-2.787,9.054-5.373
	c2.029-3.017,2.591-6.754,3.103-10.354c-3.805-0.866-7.224-0.238-9.755,2.733c-1.607,1.886-2.79,5.264-3.419,8.437
	c-1.297-6.041-2.414-12.129-3.477-18.17c1.778-2.896,3.649-7.266,3.122-10.469c-0.59-3.588-2.742-6.695-4.837-9.666
	c-3.365,1.977-5.424,4.778-5.231,8.676c0.179,3.613,3.194,8.925,5.723,11.802c-0.685,4.272-1.09,8.578-1.213,12.887
	c-1.474-2.988-3.946-6.581-6.73-7.834c-3.316-1.492-7.094-1.417-10.729-1.314c-0.213,3.897,0.982,7.161,4.337,9.155
	c3.135,1.864,9.306,2.281,13.094,1.744c-0.064,5.897,0.401,11.794,1.4,17.618c-2.344-3.119-5.65-6.403-8.919-7.328
	c-4.338-1.227-8.959-0.448-13.398,0.339c0.448,4.818,2.507,8.604,6.984,10.441c4.062,1.666,11.378,1.138,15.964-0.127
	c0.247,1.19,0.508,2.378,0.801,3.56c1.409,5.699,3.08,11.008,5.289,16.23c-3.729-3.088-8.88-6.231-13.193-6.324
	c-5.417-0.117-10.557,2.185-15.484,4.44c1.976,5.47,5.515,9.252,11.277,10.037c5.308,0.722,13.837-2.199,18.759-5.1
	c3.172,6.771,7.362,13.49,13.246,20.814c17.769,22.121,46.951,34.559,61.514,58.349c-0.089,0.28-0.156,0.564-0.248,0.845
	c-9.085,27.85-30.02,51.48-41.077,78.048c-1.523-3.291-3.068-6.572-4.66-9.828c-1.204-2.464-2.445-4.934-3.708-7.407
	c1.601-4.691,3.094-9.406,4.287-14.165c4.899-0.097,11.648-1.446,15.057-3.985c4.027-3,5.121-7.336,4.329-12.295
	c-4.665,0.353-9.51,0.761-13.554,3.112c-1.468,0.854-2.802,2.264-3.966,3.911c0.147-1.008,0.287-2.016,0.394-3.029
	c0.578-5.487,0.726-10.417,0.513-15.037c4.922-0.365,12.315-2.435,15.712-5.512c3.722-3.371,4.396-7.792,3.134-12.652
	c-4.609,0.798-9.394,1.666-13.195,4.394c-2.722,1.953-4.722,5.996-5.934,9.715c-0.695-7.199-2.318-13.748-4.667-20.62
	c-0.219-0.639-0.448-1.274-0.681-1.907c5.367-1.734,12.9-5.923,15.836-10.183c3.255-4.722,2.847-9.814,0.171-14.887
	c-4.916,2.094-10.008,4.313-13.519,8.341c-2.583,2.963-3.743,8.179-4.082,12.718c-3.664-8.601-8.698-16.562-14.881-23.593
	c0.833-4.955,0.97-12.327-1.671-16.516c-2.85-4.519-7.54-7.495-12.076-10.32c-3.424,4.601-4.61,9.569-2.12,14.736
	c2.329,4.832,9.557,10.358,14.635,12.773c2.347,5.604,4.661,11.281,6.751,17.022c-2.426-3.582-5.712-7.173-9.148-8.451
	c-5.008-1.863-10.542-1.383-15.861-0.876c0.07,5.735,2.142,10.404,7.256,13c4.811,2.442,13.991,2.434,19.482,1.252
	c1.764,5.242,3.292,10.534,4.445,15.868c-2.126-3.016-4.933-5.973-7.852-7.033c-4.397-1.597-9.238-1.138-13.892-0.658
	c0.1,5.02,1.946,9.094,6.442,11.331c3.992,1.987,11.373,2.034,16.225,1.131c1.042,6.104,1.54,12.258,1.271,18.455
	c-0.651-2.809-1.718-5.508-3.346-7.242c-3.202-3.411-7.728-5.188-12.096-6.862c-2.178,4.524-2.371,8.992,0.629,13.019
	c2.695,3.618,9.38,7.029,14.128,8.384c-0.775,5.428-2.112,10.779-3.723,16.086c-16.122-29.767-36.238-59.765-59.093-87.317
	c-1.844-19.981,7.696-40.557,7.004-61.063c-0.39-11.567-2.534-20.044-6.206-28.393c3.742-1.976,8.66-5.585,10.118-9.44
	c1.594-4.217,1.213-8.888,0.81-13.378c-4.839,0.033-8.788,1.761-11.001,6.064c-1.641,3.191-2.008,8.678-1.614,13.132
	c-0.19-0.388-0.378-0.775-0.575-1.164c-3.312-6.55-7.592-12.538-12.632-17.829c4.849-2.572,11.185-7.236,13.069-12.218
	c2.069-5.472,1.575-11.534,1.051-17.36c-6.28,0.043-11.403,2.285-14.275,7.869c-2.477,4.817-2.718,13.663-1.768,19.741
	c-1.807-1.764-3.695-3.447-5.676-5.028h0c-0.114-0.091-0.27,0.043-0.195,0.168c3.921,6.574,7.867,13.287,11.301,20.186
	c-4.309-2.761-9.943-5.317-14.412-4.928c-5.828,0.507-11.077,3.58-16.101,6.577c2.761,5.64,7.001,9.287,13.279,9.454
	c5.597,0.149,14.036-3.72,19.055-7.314c2.814,6.069,5.163,12.286,6.696,18.68c-3.336-2.186-7.807-4.271-11.333-3.964
	c-4.466,0.389-8.488,2.743-12.339,5.04c2.116,4.322,5.366,7.117,10.176,7.245c4.127,0.11,10.27-2.631,14.156-5.292
	c0.682,3.472,1.117,6.996,1.238,10.579c0.081,2.386,0.016,4.774-0.146,7.161c-2.778-3.055-7.006-6.533-10.782-7.059
	c-4.44-0.618-8.887,0.778-13.153,2.157c1.097,4.686,3.64,8.135,8.301,9.335c4.143,1.067,11.081-0.368,15.447-2.186
	c-1.402,14.943-6.459,29.869-6.863,44.521c-4.007-4.62-8.092-9.158-12.244-13.604c4.339-2.404,9.706-6.493,11.351-10.845
	c1.889-4.998,1.438-10.534,0.96-15.856c-5.735,0.039-10.415,2.087-13.038,7.187c-2.108,4.099-2.443,11.394-1.777,16.861
	c-6.452-6.804-13.067-13.376-19.821-19.672c3.884-2.448,8.02-5.981,9.428-9.706c1.889-4.998,1.438-10.534,0.96-15.856
	c-5.735,0.039-10.415,2.087-13.038,7.187c-1.768,3.437-2.287,9.121-2.017,14.091c-5.598-5.063-11.285-9.93-17.051-14.573
	c3.839-3.224,8.606-8.602,9.335-13.413c0.801-5.283-0.8-10.602-2.382-15.705c-5.6,1.24-9.747,4.222-11.244,9.759
	c-1.259,4.656,0.115,12.322,2.048,17.565c-2.858-2.265-5.735-4.472-8.628-6.623c-2.845-3.827-7.028-8.03-11.126-9.13
	c-5.16-1.386-10.625-0.39-15.873,0.612c0.606,5.703,3.106,10.158,8.44,12.264c4.7,1.856,13.013,1.212,18.449-0.266
	c4.521,4.41,8.975,8.929,13.351,13.562c-3.78-0.705-7.833-0.858-10.783,0.356c-4.941,2.034-8.677,6.144-12.237,10.129
	c3.946,4.162,8.638,6.182,14.155,4.614c4.412-1.254,9.933-5.95,13.474-10.154c3.19,3.475,6.339,7.005,9.444,10.589
	c-4.586,1.899-10.401,5.368-12.528,9.517c-2.438,4.754-2.611,10.306-2.732,15.648c5.704,0.604,10.584-0.905,13.762-5.68
	c2.619-3.933,3.762-11.411,3.651-16.965c7.114,8.324,13.998,16.919,20.62,25.751c-4.514,0.29-9.678,1.382-12.648,3.903
	c-4.074,3.457-6.361,8.519-8.521,13.406c5.036,2.744,10.122,3.22,14.888,0.029c3.64-2.438,7.276-8.176,9.402-13.122
	c30.076,40.949,54.631,86.612,71.364,132.512c0.165,0.451,0.323,0.906,0.486,1.358c-9.747-5.419-20.321-9.926-30.129-15.466
	c3.003-3.756,6.072-8.989,6.071-13.301c-0.002-5.343-2.384-10.361-4.715-15.169c-5.35,2.067-9.002,5.638-9.65,11.337
	c-0.443,3.894,1.132,9.497,3.185,14.087c-3.121-1.964-6.134-4.069-8.968-6.405c-1.704-1.404-3.309-2.898-4.868-4.431
	c3.257-3.779,6.98-9.643,6.978-14.393c-0.002-5.343-2.384-10.361-4.715-15.169c-5.35,2.067-9.002,5.638-9.65,11.337
	c-0.425,3.738,1.011,9.046,2.943,13.525c-4.59-5.296-8.518-11.155-12.016-17.335c4.151-2.686,9.154-7.067,10.502-11.472
	c1.563-5.109,0.755-10.605-0.065-15.885c-5.721,0.409-10.259,2.754-12.547,8.014c-1.431,3.289-1.667,8.442-1.222,13.117
	c-3.084-6.08-5.841-12.38-8.44-18.709c4.123-2.693,9.031-7.025,10.363-11.38c1.563-5.109,0.755-10.605-0.065-15.885
	c-5.721,0.409-10.259,2.754-12.547,8.013c-1.163,2.672-1.534,6.575-1.395,10.453c-0.079,0-0.158,0.05-0.156,0.15
	c0.145,7.964,1.361,15.857,3.61,23.457c-1.734-1.565-3.887-2.63-6.541-3.05c-4.86-0.768-12.542,1.521-17.545,4.065
	c0.456-10.387,1-20.848-0.661-30.951c4.893-0.961,11.425-3.27,14.353-6.998c3.3-4.202,4.529-9.619,5.667-14.839
	c-5.484-1.681-10.562-1.13-14.593,2.95c-2.921,2.956-5.242,8.821-6.407,13.917c-1.488-6.677-3.426-12.27-5.873-17.373
	c4.277-2.425,9.414-6.413,11.017-10.655c1.889-4.998,1.438-10.534,0.96-15.856c-5.735,0.039-10.415,2.087-13.038,7.187
	c-1.701,3.307-2.244,8.692-2.043,13.522c-1.467-2.481-3.073-4.898-4.825-7.333c-2.19-3.043-4.607-5.9-7.191-8.593
	c3.81-3.238,8.456-8.534,9.175-13.278c0.801-5.283-0.8-10.602-2.382-15.705c-5.6,1.24-9.747,4.222-11.244,9.759
	c-1.172,4.337-0.06,11.284,1.659,16.454c-4.174-3.946-8.766-7.44-13.699-10.427c-1.451-4.769-4.403-11.023-8.402-13.557
	c-4.513-2.861-10.026-3.538-15.335-4.145c-1.121,5.625-0.062,10.622,4.403,14.222c4.388,3.538,13.987,5.444,19.523,5.245
	c4.988,6.04,9.949,12.227,14.402,18.679c-3.607-2.081-7.852-3.765-11.336-3.484c-5.326,0.429-10.137,3.205-14.743,5.913
	c2.488,5.168,6.34,8.522,12.073,8.712c5.007,0.166,12.534-3.175,17.168-6.37c4.08,6.439,7.56,13.161,9.993,20.275
	c-2.768-2.766-6.109-5.245-9.293-5.904c-5.232-1.083-10.629,0.23-15.811,1.536c0.937,5.658,3.692,9.96,9.141,11.752
	c4.622,1.52,12.444,0.53,17.787-1.144c0.265,1.088,0.511,2.184,0.724,3.291c3.84,20.035-1.642,41.6,1.766,61.257
	c-5.875-4.465-11.346-9.466-16.526-14.819c3.797-3.243,8.395-8.506,9.11-13.223c0.801-5.283-0.8-10.602-2.382-15.705
	c-5.6,1.24-9.747,4.222-11.244,9.759c-1.137,4.206-0.126,10.871,1.504,15.986c-5.029-5.45-9.78-11.225-14.335-17.179
	c3.686-3.266,7.908-8.267,8.59-12.77c0.801-5.283-0.8-10.602-2.382-15.705c-5.6,1.24-9.747,4.222-11.244,9.759
	c-0.915,3.384-0.437,8.359,0.632,12.839c-4.289-5.847-8.427-11.807-12.491-17.746c1.642-4.731,2.971-11.734,1.153-16.217
	c-2.008-4.951-6.1-8.708-10.065-12.289c-4.183,3.925-6.227,8.606-4.687,14.131c1.469,5.271,7.827,12.147,12.424,15.342
	c1.056,3.896,2.305,7.729,3.725,11.494c-3.513-2.602-7.88-4.943-11.596-4.994c-5.343-0.073-10.394,2.238-15.234,4.501
	c1.992,5.379,5.511,9.081,11.2,9.808c4.907,0.628,12.576-1.918,17.499-4.625c2.903,6.849,6.415,13.429,10.498,19.659
	c-4.286-1.972-9.826-3.61-13.878-2.656c-5.201,1.224-9.542,4.69-13.689,8.059c3.236,4.736,7.547,7.474,13.243,6.802
	c5.117-0.604,12.305-5.275,16.353-9.201c1.38,1.976,2.814,3.917,4.311,5.814c2.686,3.402,5.408,6.601,8.252,9.648
	c-4.306-0.959-9.326-1.333-12.778,0.161c-4.903,2.123-8.564,6.301-12.052,10.348c4.021,4.09,8.748,6.025,14.236,4.358
	c4.714-1.432,10.635-6.858,14.024-11.334c8.582,8.485,18.561,15.762,32.339,22.728c29.922,15.128,66.876,15.368,95.484,31.357
	c-4.682,1.024-8.283,3.571-10.06,8.26c-1.494,3.944-1.211,10.377-0.174,15.547c-2.955-2.538-6.129-4.82-9.501-6.795
	c-3.778-3.051-9.146-6.233-13.547-6.22c-5.343,0.016-10.355,2.412-15.156,4.755c2.081,5.345,5.662,8.987,11.363,9.62
	c5.158,0.572,13.292-2.398,18.111-5.328c5.369,6.092,10.61,12.407,14.913,19.183c-3.499-2.451-7.756-4.588-11.363-4.577
	c-5.343,0.016-10.355,2.412-15.156,4.756c2.081,5.344,5.662,8.987,11.363,9.62c5.075,0.563,13.034-2.304,17.879-5.187
	c2.752,5.01,4.94,10.277,6.238,15.9c1.234,5.346,1.631,10.863,1.743,16.425c-1.524-4.141-3.927-8.569-7.053-10.664
	c-4.439-2.975-9.933-3.792-15.224-4.534c-1.264,5.595-0.332,10.617,4.04,14.329c4.022,3.415,12.645,5.517,18.276,5.725
	c-0.015,8.191-0.31,16.401,0.833,24.237c-0.15-0.092-0.307-0.171-0.457-0.263c-34.242-21.03-59.41-53.849-90.438-79.385
	c-8.683-7.146-17.997-13.827-27.738-19.932c3.116-3.862,6.514-9.609,6.417-14.232c-0.112-5.361-2.605-10.347-5.043-15.124
	c-5.326,2.184-8.917,5.842-9.45,11.574c-0.399,4.287,1.669,10.579,4.107,15.334c-6.654-4.013-13.496-7.745-20.462-11.17
	c2.544-4.222,5.089-10.279,4.389-14.791c-0.819-5.28-3.941-9.875-6.98-14.269c-4.971,2.861-8.034,6.949-7.802,12.68
	c0.168,4.15,2.868,9.844,5.795,14.171c-6.082-2.847-12.248-5.449-18.46-7.785c-1.67-3.864-5.109-9.363-9.03-11.104
	c-4.087-1.815-8.735-1.7-13.205-1.552c-0.238,4.795,1.251,8.803,5.39,11.236c3.723,2.189,10.89,2.709,15.576,2.136
	c18.966,10.107,35.44,23.814,51.031,38.869c-6.82-0.878-13.85-0.385-20.939,0.314c0.29-4.189-0.182-10.233-2.675-13.48
	c-2.724-3.547-6.862-5.667-10.859-7.672c-2.5,4.098-3.106,8.331-0.633,12.446c2.078,3.457,7.491,7.07,11.774,8.947
	c-8.962,0.923-17.993,1.97-26.796,0.814c-0.015-0.002-0.029-0.005-0.044-0.007c1.971-5.602,3.562-13.78,1.475-19.065
	c-2.333-5.906-7.155-10.415-11.83-14.714c-5.013,4.619-7.493,10.161-5.723,16.744c1.43,5.317,7.014,12.043,11.989,16.318
	c-15.294-3.209-28.738-12.599-41.483-21.963c0.89-6.906,0.691-17.075-3.169-22.724c-4.18-6.116-10.83-9.999-17.258-13.681
	c-4.509,6.55-5.898,13.494-2.184,20.525c3.714,7.031,15.234,14.879,22.372,17.531c0.043-0.256,0.081-0.53,0.121-0.799
	c3.197,4.654,6.971,8.87,11.237,12.537c-7.23-0.516-16.351,0.15-21.703,3.839c-6.631,4.572-10.824,11.82-14.799,18.826
	c7.141,4.874,14.698,6.354,22.327,2.285c6.871-3.665,14.421-14.21,17.939-21.95c1.205,0.889,2.431,1.751,3.7,2.555
	c8.113,5.141,15.882,8.438,27.52,10c-3.64,1.712-7.076,4-8.901,6.774c-3.326,5.053-4.2,11.281-4.99,17.279
	c6.346,1.378,12.023,0.276,16.185-4.708c3.457-4.141,5.666-12.519,6.197-18.802c10.77,0.018,21.739-2.119,32.382-2.322
	c-4.133,2.807-8.339,6.659-9.785,10.667c-2.053,5.69-1.447,11.95-0.814,17.967c6.492-0.143,11.755-2.541,14.637-8.361
	c2.452-4.951,2.591-13.915,1.56-20.175c3.753,0.218,7.453,0.771,11.074,1.856c21.659,21.823,42.105,45.569,65.829,64.956
	c-8.229,1.998-16.015,5.413-23.617,9.476c0.082-5.668-0.828-12.662-3.9-16.663c-3.867-5.037-9.744-8.046-15.42-10.894
	c-3.55,5.82-4.41,11.83-0.899,17.672c2.808,4.671,9.909,9.547,15.831,12.305c-10.599,6.027-20.928,13.051-31.691,18.969
	c0.203-8.1-1.027-18.374-5.483-24.177c-5.447-7.094-13.723-11.332-21.717-15.343c-4.999,8.196-6.211,16.66-1.265,24.889
	c4.041,6.723,14.397,13.752,22.842,17.585c-4.671,2.337-9.442,4.411-14.372,6.045c-9.638,3.195-19.574,4.639-29.642,4.946
	c1.212-8.11,1.257-18.856-2.62-25.3c-4.611-7.663-12.356-12.808-19.847-17.695c-5.892,7.58-8.052,15.853-4.066,24.587
	c2.91,6.376,10.801,13.556,18.127,18.412c-14.565-0.404-29.307-2.82-43.739-5.467c-2.516-7.786-7.959-18.724-15.021-22.802
	c-7.529-4.348-16.539-5.078-25.21-5.708c-1.444,9.22,0.614,17.274,8.115,22.826c7.195,5.326,22.354,7.79,31.434,7.26
	c9.77,5.427,20.315,9.315,31.26,11.477c-10.471,5.175-23.308,14.03-27.674,23.938c-5.103,11.58-4.739,24.731-4.284,37.378
	c13.569,0.635,24.898-3.612,31.749-15.342c6.306-10.797,7.649-31.807,5.804-45.023c0.937,0.133,1.877,0.254,2.818,0.363
	c12.437,1.428,23.732,1.288,37.004-1.812c-4.949,6.547-10.144,15.986-9.817,23.514c0.389,8.935,4.733,17.156,8.978,25.028
	c8.798-3.842,14.649-10.078,15.321-19.655c0.61-8.682-4.93-22.12-10.165-29.975c2.3-0.628,4.661-1.339,7.107-2.149
	c11.766-3.9,22.638-10.272,33.367-16.877c-4.16,5.516-8.511,13.444-8.236,19.769c0.328,7.532,3.99,14.461,7.568,21.097
	c7.416-3.239,12.348-8.495,12.915-16.568c0.538-7.666-4.611-19.737-9.194-26.183c15.35-9.503,30.549-19.049,47.803-22.046
	c0.722,0.526,1.435,1.064,2.164,1.581c22.328,15.855,47.897,26.991,74.621,32.943c29.961,6.673,54.637,28.249,65.189,57.073
	c0.071,0.194,0.142,0.388,0.212,0.583c14.864,41.07,28.664,97.129,26.003,160.135c-1.408,33.335-3.538,59.32-7.662,80.759
	c-11.356,39.846-30.868,64.962-58.263,90.309c-0.386,0.357-0.051,0.983,0.46,0.864c88.033-20.435,150.232-3.939,162.324-0.249
	c0.517,0.158,0.865-0.494,0.47-0.862c-2.37-2.213-4.63-4.417-6.796-6.624c5.709,1.059,11.539,2.267,17.492,3.649
	c0.512,0.119,0.846-0.507,0.46-0.864c-30.222-27.963-50.853-55.637-61.52-103.125c-2.101-17.004-3.427-36.613-4.405-59.77
	c-2.661-63.007,11.139-119.066,26.003-160.135c0.07-0.195,0.141-0.389,0.212-0.583c10.552-28.824,35.228-50.4,65.189-57.073
	c26.724-5.952,52.293-17.089,74.621-32.943c0.729-0.517,1.442-1.055,2.164-1.581c16.835,2.924,31.713,12.083,46.684,21.353
	c-4.324,6.675-8.781,17.674-8.278,24.832c0.567,8.073,5.498,13.329,12.915,16.568c3.578-6.636,7.241-13.565,7.568-21.097
	c0.223-5.128-2.596-11.313-5.887-16.41c10.035,6.127,20.239,11.921,31.222,15.561c1.997,0.662,3.931,1.249,5.83,1.788
	c-4.888,7.987-9.659,20.204-9.091,28.293c0.672,9.577,6.523,15.813,15.321,19.655c4.245-7.872,8.59-16.093,8.978-25.028
	c0.289-6.648-3.73-14.793-8.082-21.116c12.619,2.763,23.515,2.83,35.473,1.457c0.786-0.09,1.57-0.195,2.352-0.303
	c-1.433,13.252,0.085,32.681,6.066,42.92c6.851,11.73,18.18,15.978,31.749,15.342c0.455-12.647,0.819-25.798-4.284-37.378
	c-3.974-9.019-14.967-17.166-24.805-22.459c11.267-2.529,22.078-6.884,32.002-12.878c0.009-0.005,0.009-0.014,0.016-0.02
	c9.089-0.186,21.503-2.652,27.806-7.318C832.588,443.282,834.646,435.229,833.202,426.008z M446.549,406.464
	c2.624,3.242,8.027,6.23,13.047,8.115c-2.506,6.537-5.238,13.018-7.807,19.506c-1.519,0.487-3.036,0.943-4.549,1.368
	c-0.78-10.385-1.488-21.075-2.101-31.07C445.537,405.09,446,405.785,446.549,406.464z M459.804,236.192
	c6.11,0.114,15.423-1.578,20.109-4.941c-9.126,11.549-20.921,21.011-32.285,30.681c1.549-2.276,3.006-4.605,4.317-7.019
	C455.603,248.177,458.097,242.112,459.804,236.192z M418.755,84.256c4.543,2.606,11.921,5.144,16.605,4.563
	c4.524-0.561,7.576-3.154,9.536-7.014c0.528,1.111,1.216,2.191,2.101,3.232c3.199,3.761,10.18,7.079,15.937,8.744
	c-0.544,8.77-1.669,17.429-3.744,25.82c-0.554-3.119-1.543-6.07-3.159-8.139c-3.62-4.633-9.084-7.373-14.362-9.964
	c-3.241,5.416-3.99,10.987-0.693,16.369c2.724,4.446,9.693,9.058,15.299,11.511c-1.237,3.508-2.672,6.957-4.342,10.331
	c-2.147,4.339-4.652,8.489-7.38,12.517c0.478-3.792,0.392-7.688-0.884-10.572c-2.379-5.377-7.008-9.368-11.493-13.171
	c-4.465,4.46-6.553,9.68-4.67,15.704c1.563,4.998,7.235,11.203,12.086,14.946c-10.637,14.076-23.293,27.008-32.149,41.695
	c-1.149-9.416-1.902-18.79-2.383-27.992c4.31-0.62,9.447-2.133,12.11-4.916c3.399-3.55,5.01-8.398,6.521-13.075
	c-4.869-2.031-9.567-1.984-13.623,1.389c-2.02,1.68-3.906,4.644-5.384,7.814c-0.161-4.638-0.262-9.215-0.314-13.721
	c5.37-0.618,12.267-2.443,15.71-6.04c4.066-4.247,5.994-10.048,7.802-15.643c-5.825-2.43-11.446-2.373-16.299,1.662
	c-2.812,2.338-5.403,6.756-7.263,11.222c0.006-6.477,0.091-12.77,0.209-18.815c5.454-0.918,13.648-3.618,17.114-8.127
	c3.584-4.662,4.874-10.636,6.067-16.394c-6.053-1.787-11.635-1.123-16.024,3.412c-3.322,3.433-5.892,10.354-7.051,16.136
	c0.135-6.028,0.288-11.794,0.409-17.217C408.585,94.561,413.914,89.579,418.755,84.256z M378.362,82.807
	c1.055,4.614,2.448,9.171,5.308,12.89c2.683,3.49,8.203,5.899,13.091,7.236c-0.66,6.279-1.231,12.57-1.718,18.871
	c-1.713-5.769-5.137-12.816-8.97-16.003c-4.853-4.035-10.474-4.093-16.299-1.662c1.808,5.595,3.736,11.396,7.802,15.643
	c3.763,3.93,11.653,5.749,17.164,6.183c-0.415,5.829-0.757,11.665-1.028,17.507c-1.519-4.581-4.186-9.793-7.145-12.253
	c-4.056-3.373-8.754-3.421-13.623-1.389c1.511,4.676,3.122,9.525,6.521,13.075c3.078,3.215,9.457,4.738,14.046,5.141
	c-0.235,5.86-0.404,11.725-0.499,17.593c-8.949-14.565-21.564-27.439-32.103-41.486C362.653,109.397,371.405,96.418,378.362,82.807z
	 M293.712,159.168c3.679-12.077,9.709-27.073,14.046-40.725c4.806,1.116,12.446,1.346,16.594-0.567
	c2.105-0.971,3.651-2.354,4.736-4.051c1.313,7.033,2.564,14.125,3.605,21.237c-1.907-2.269-4.141-4.239-6.44-5.074
	c-4.559-1.655-9.579-1.18-14.404-0.682c0.104,5.206,2.018,9.429,6.679,11.749c3.707,1.845,10.23,2.076,15.167,1.432
	c0.702,5.716,1.234,11.436,1.516,17.137c-1.833-2.719-4.358-5.497-6.989-6.453c-3.719-1.35-7.814-0.963-11.749-0.557
	c0.085,4.246,1.646,7.691,5.448,9.584c3.297,1.641,9.328,1.718,13.431,1.01c0.137,4.481,0.11,8.947-0.121,13.389
	c-1.364-1.956-3.184-3.891-5.076-4.578c-2.808-1.019-5.899-0.727-8.87-0.42c0.064,3.206,1.243,5.807,4.113,7.235
	c2.358,1.174,6.568,1.288,9.639,0.842c-0.37,5.03-1.006,10.026-1.978,14.971C322.928,180.589,307.696,170.473,293.712,159.168z
	 M340.084,213.855c7.09-21.737,7.834-38.05,5.624-56.53c-1.875-15.675-6.759-30.828-14.281-44.67
	c0.62-3.362,0.78-8.835-1.165-11.842c-1.978-3.058-5.197-5.05-8.31-6.941c-2.298,3.162-3.068,6.558-1.331,10.06
	c0.357,0.719,0.881,1.459,1.509,2.193c-1.666,0.088-3.309,0.34-4.903,0.866c-2.941,0.97-5.827,3.829-8.038,6.772
	c1.744-5.956,3.054-11.541,3.563-16.369c0.228-2.161,0.384-4.23,0.485-6.235c5.533-0.876,13.475-3.769,16.999-7.446
	c0.267-0.278,0.514-0.561,0.749-0.848c1.679,9.242,4.732,18.546,10.036,29.263c7.454,15.063,19.153,27.881,29.895,41.048
	c-2.981-1.727-6.363-3.069-9.218-2.924c-4.77,0.243-9.142,2.595-13.329,4.893c2.086,4.683,5.439,7.782,10.556,8.103
	c4.555,0.286,11.539-2.613,15.741-5.394c3.534,4.495,6.885,9.066,9.857,13.812c-2.13-1.699-4.466-3.056-6.685-3.436
	c-4.707-0.807-9.488,0.531-14.077,1.856c1.011,5.026,3.603,8.784,8.525,10.218c4.283,1.248,11.501,0.035,16.222-1.696
	c1.728,3.331,3.239,6.763,4.47,10.329c0.259,17.097,1.103,34.19,2.491,51.222c-5.503-0.17-11.179-0.207-16.194,2.025
	c-3.611,1.607-6.903,5.706-9.263,9.724c-1.924-6.34-4.433-12.496-7.492-18.39c2.114-5.617,3.645-13.889,2.31-18.914
	c-1.579-5.946-6.014-9.164-12.015-10.52c-1.721,5.467-3.463,11.165-2.629,16.835c0.752,5.11,5.744,10.835,9.823,14.322
	c1.862,10.149,3.526,20.428,4.388,30.673c-2.527-5.221-6.756-11.263-10.818-13.707c-5.271-3.172-10.695-2.399-15.949,0.802
	c2.567,5.124,5.28,10.429,9.824,13.922c4.159,3.196,11.9,3.806,17.268,3.438c0.607,10.085,0.344,20.114-1.372,29.929
	c-2.277-5.599-7.157-13.128-11.813-15.929c-5.271-3.172-10.695-2.399-15.949,0.802c2.567,5.124,5.28,10.429,9.824,13.922
	c4.224,3.246,12.147,3.826,17.523,3.421c-0.718,3.624-1.638,7.217-2.798,10.771c-2.322,7.119-5.552,13.914-9.182,20.553
	c-1.209-5.21-3.451-10.93-6.309-13.949c-4.23-4.467-9.663-5.174-15.582-3.496c1.102,5.624,2.296,11.462,5.739,16.043
	c2.609,3.471,8.061,5.893,12.853,7.238c-6.014,10.303-12.68,20.332-18.114,30.707c-0.453-0.733-0.921-1.459-1.364-2.196
	c-12.85-21.358-22.422-44.431-32.48-67.272C305.237,270.553,329.986,244.812,340.084,213.855z M166.741,271.156
	c-2.772-9.919-2.702-20.436-2.279-31.08c3.632,3.218,8.839,6.637,13.23,6.827c4.744,0.205,9.312-1.479,13.713-3.344
	c0.696,1.73,1.441,3.441,2.25,5.127c1.586,3.307,3.253,6.421,5.093,9.422c-2.046-1.283-4.43-1.958-7.205-1.858
	c-5.732,0.209-14.441,5.232-18.401,9.037c4.081,2.883,11.469,6.536,16.752,5.738c4.916-0.743,9.243-3.481,13.372-6.292
	c2.045,2.694,4.322,5.333,6.92,7.974c-0.642-0.113-1.307-0.183-2.02-0.157c-4.055,0.148-10.217,3.702-13.019,6.394
	c2.888,2.04,8.114,4.624,11.852,4.06c3.48-0.526,6.544-2.465,9.466-4.455c0.609,0.522,1.222,1.045,1.861,1.571
	c8.977,7.397,19.681,12.579,30.286,17.776c-24.182-7.807-51.095-10.685-73.917-22.223
	C171.957,274.288,169.325,272.755,166.741,271.156z M266.128,351.965c-1.61-2.068-3.354-4.016-5.196-5.863
	c3.925-2.897,8.426-7.35,9.52-11.661c1.168-4.601,0.451-9.416-0.476-14.103c1.775,1.068,3.518,2.194,5.219,3.402
	c3.996,12.181,7.948,24.384,12.346,36.369c-4.195,0.384-7.571,2.184-9.445,6.088c-0.683,1.422-1.094,3.298-1.299,5.322
	C274.225,363.755,270.754,357.907,266.128,351.965z M282.102,428.038c-0.491-2.254-0.822-4.55-1.06-6.87
	c4.537-0.858,10.176-2.795,12.879-6.006c3.264-3.878,4.604-8.975,5.851-13.888c-5.145-1.77-9.978-1.411-13.931,2.328
	c-2.105,1.99-3.95,5.483-5.287,9.096c-0.206-10.211,0.563-20.717-1.123-30.733c3.438-2.082,7.53-5.45,8.742-8.946
	c0.995-2.868,1.054-5.923,0.831-8.976c5.974,15.83,12.838,31.226,21.789,45.603c7.385,11.862,18.028,25.038,29.498,36.798
	C319.971,443.981,300.102,437.766,282.102,428.038z M401.115,433.408c-26.835-9.133-48.491-29.439-64.94-52.943
	c8.601-17.889,21.577-34.509,29.553-52.948c5.507,2.271,13.416,4.037,18.363,2.953c6.009-1.317,9.419-5.607,11.036-11.542
	c-5.386-1.959-11.002-3.949-16.703-3.364c-3.241,0.332-6.802,2.342-9.91,4.764c0.164-0.475,0.345-0.944,0.501-1.422
	c2.298-7.045,3.822-13.429,4.728-19.5c5.852,0.324,13.422-0.497,17.601-2.958c5.301-3.122,7.206-8.26,6.895-14.404
	c-5.728-0.185-11.685-0.328-16.921,2.002c-2.416,1.076-4.686,3.271-6.633,5.807c0.323-6.551-0.019-12.944-0.823-19.669
	c-0.51-4.268-1.289-8.489-2.307-12.646c5.871,0.346,13.534-0.469,17.747-2.95c3.802-2.239,5.849-5.519,6.593-9.46
	c1.869,21.272,4.583,42.441,8.103,63.394c5.415,32.236,9.78,77.136,3.223,111.701c-1.474-2.542-2.853-5.132-4.093-7.792
	c-5.202-11.165-7.913-23.058-9.165-35.265c4.028-0.88,8.788-2.733,11.146-5.072c3.154-3.128,3.573-7.063,2.262-11.307
	c-4.042,0.89-8.235,1.85-11.485,4.413c-0.992,0.783-1.853,1.898-2.586,3.177c-0.413-8.328-0.274-16.754,0.11-25.153
	c3.422-0.684,7.629-2.265,9.668-4.288c2.611-2.59,2.958-5.847,1.873-9.361c-3.346,0.737-6.818,1.531-9.508,3.653
	c-0.586,0.462-1.113,1.069-1.59,1.76c0.17-2.791,0.354-5.575,0.543-8.347c0.014-0.209-0.271-0.279-0.358-0.088
	c-4.428,9.725-7.395,20.032-8.795,30.576c-2.565-4.921-6.464-10.261-10.221-12.522c-5.271-3.172-10.695-2.399-15.949,0.802
	c2.567,5.124,5.28,10.429,9.824,13.922c3.779,2.904,10.516,3.672,15.744,3.513c-0.22,2.809-0.331,5.629-0.326,8.456
	c0.011,6.309,0.387,12.285,1.335,18.299c-2.566-4.864-6.411-10.09-10.117-12.32c-5.271-3.172-10.695-2.399-15.949,0.802
	c2.567,5.124,5.28,10.429,9.824,13.922c4.179,3.212,11.976,3.812,17.347,3.432c1.256,5.678,3.082,11.498,5.661,17.759
	c-3.167-1.901-6.952-3.498-9.786-3.576c-4.421-0.123-7.543,2.279-9.7,6.139c3.418,2.3,6.991,4.662,11.07,5.242
	c3.187,0.453,7.342-1.198,10.5-3.014c0.168,0.367,0.323,0.726,0.495,1.097c2.3,4.937,5.054,9.647,8.076,14.218
	C402.473,433.569,401.781,433.634,401.115,433.408z M593.469,336.485c1.221,4.809,6.682,9.798,10.852,12.603
	c-2.267,2.163-4.391,4.48-6.325,6.964c-4.663,5.989-8.151,11.881-10.729,19.74c-0.081-2.847-0.513-5.616-1.441-7.55
	c-1.737-3.618-4.76-5.433-8.53-5.988c4.116-11.36,7.854-22.904,11.635-34.427c1.49-1.058,3.016-2.045,4.563-2.995
	C592.829,328.734,592.504,332.683,593.469,336.485z M646.825,280.162c3.112,2.134,6.367,4.321,10.097,4.885
	c3.738,0.565,8.965-2.02,11.852-4.06c-2.802-2.692-8.964-6.246-13.019-6.394c-1.113-0.04-2.13,0.109-3.073,0.399
	c2.935-2.784,5.494-5.547,7.766-8.357c4.191,2.86,8.581,5.678,13.579,6.433c5.283,0.798,12.671-2.855,16.752-5.738
	c-3.96-3.805-12.67-8.829-18.401-9.037c-2.782-0.101-5.172,0.578-7.222,1.868c2.373-3.629,4.443-7.408,6.394-11.476
	c0.464-0.968,0.904-1.947,1.331-2.931c4.288,1.802,8.736,3.39,13.348,3.19c4.438-0.192,9.708-3.682,13.344-6.93
	c0.49,11.375,0.768,22.641-2.19,33.227c-2.584,1.599-5.216,3.132-7.954,4.517c-29.672,15.002-66.265,15.354-94.773,30.949
	c0.427-1.244,0.86-2.484,1.293-3.725c-0.093,0.739-0.184,1.478-0.253,2.219C611.843,298.727,631.757,292.554,646.825,280.162z
	 M566.317,191.935c2.859,4.148,10.083,8.236,15.416,10.048c-2.595,7.589-4.302,14.787-4.852,22.898
	c-1.203-3.782-3.23-7.957-6.01-9.952c-3.801-2.727-8.586-3.596-13.195-4.394c-1.262,4.86-0.588,9.281,3.134,12.652
	c3.44,3.116,10.983,5.202,15.903,5.527c-0.088,4.025,0.091,8.299,0.584,12.979c0.222,2.112,0.552,4.21,0.943,6.3
	c-1.339-2.165-2.955-4.078-4.777-5.138c-4.044-2.351-8.89-2.759-13.555-3.112c-0.792,4.959,0.302,9.295,4.329,12.295
	c3.594,2.677,10.902,4.032,15.838,3.991c1.311,4.872,2.917,9.699,4.587,14.507c-1.567,3.04-3.107,6.076-4.587,9.102
	c-1.592,3.257-3.137,6.537-4.66,9.828c-11.056-26.568-31.992-50.198-41.077-78.048c-0.091-0.28-0.159-0.564-0.248-0.845
	c7.558-12.347,19.055-21.636,30.849-30.808C563.444,183.928,563.643,188.056,566.317,191.935z M528.951,181.73
	c3.064,0.434,7.231,0.313,9.571-0.852c2.87-1.429,4.049-4.03,4.113-7.235c-2.971-0.306-6.063-0.599-8.87,0.42
	c-1.843,0.669-3.617,2.524-4.969,4.428c-0.162-4.38-0.135-8.781,0.047-13.195c4.094,0.659,9.931,0.552,13.156-1.054
	c3.802-1.893,5.363-5.338,5.448-9.584c-3.936-0.406-8.03-0.794-11.749,0.557c-2.469,0.897-4.844,3.399-6.643,5.951
	c0.343-5.519,0.907-11.051,1.624-16.579c4.877,0.572,11.118,0.301,14.712-1.488c4.661-2.32,6.575-6.544,6.679-11.749
	c-4.825-0.497-9.845-0.973-14.404,0.682c-2.056,0.747-4.058,2.404-5.824,4.369c1.034-6.722,2.238-13.423,3.488-20.067
	c0.44-0.222,0.898-0.474,1.366-0.749c1.091,1.828,2.693,3.31,4.915,4.335c3.605,1.663,9.848,1.706,14.578,0.957
	c4.763,14.527,11.137,30.264,14.401,42.233c-14.033,11.363-29.351,21.506-39.526,35.624
	C529.962,193.122,529.288,187.447,528.951,181.73z M523.835,450.53c11.47-11.76,22.113-24.936,29.498-36.798
	c8.798-14.131,15.578-29.248,21.481-44.793c0.013,2.088,0.251,4.15,0.935,6.123c1.276,3.678,5.74,7.218,9.276,9.263
	c-2.002,10.062-1.313,20.666-1.436,31.012c-1.35-3.822-3.288-7.593-5.508-9.693c-3.953-3.739-8.786-4.098-13.932-2.327
	c1.247,4.913,2.587,10.01,5.851,13.888c2.781,3.304,8.67,5.259,13.269,6.077c-0.233,2.995-0.616,5.95-1.246,8.842
	C564.022,441.852,544.154,448.067,523.835,450.53z"/>
<g>
</g>
<g>
</g>
<g>
</g>
<g>
</g>
<g>
</g>
<g>
</g>
</svg>
